<?xml version="1.0" encoding="UTF-8" standalone="no"?>
<svg
   xmlns:dc="http://purl.org/dc/elements/1.1/"
   xmlns:cc="http://creativecommons.org/ns#"
   xmlns:rdf="http://www.w3.org/1999/02/22-rdf-syntax-ns#"
   xmlns:svg="http://www.w3.org/2000/svg"
   xmlns="http://www.w3.org/2000/svg"
   viewBox="0 0 793.62665 1122.6667"
   height="1122.6667"
   width="793.62665"
   xml:space="preserve"
   id="svg2"
   version="1.1"><metadata
     id="metadata8"><rdf:RDF><cc:Work
         rdf:about=""><dc:format>image/svg+xml</dc:format><dc:type
           rdf:resource="http://purl.org/dc/dcmitype/StillImage" /></cc:Work></rdf:RDF></metadata><defs
     id="defs6" /><g
     transform="matrix(1.3333333,0,0,-1.3333333,0,1122.6667)"
     id="g10"><g
       transform="translate(267.18,503.36)"
       id="g12"><path
         id="path14"
         style="fill:none;stroke:#000000;stroke-width:0.72000003;stroke-linecap:round;stroke-linejoin:bevel;stroke-miterlimit:10;stroke-dasharray:none;stroke-opacity:1"
         d="M 0,0 -0.9,-0.06 -1.8,-0.3 -2.64,-0.66 c -8.501,-4.911 -10.82,-23.541 -10.98,-32.28 v -4.56 c 0.081,-8.402 2.658,-28.902 11.82,-32.64 l 0.9,-0.24 0.9,-0.06 0.9,0.06 0.9,0.24 c 8.656,3.449 11.462,22.363 11.7,30.3 l 0.12,2.34 v 2.28 c 0.182,9.049 -2.093,29.491 -10.98,34.56 L 1.8,-0.3 0.9,-0.06 Z" /><g
         transform="translate(66.3)"
         id="g16"><path
           id="path18"
           style="fill:none;stroke:#000000;stroke-width:0.72000003;stroke-linecap:round;stroke-linejoin:bevel;stroke-miterlimit:10;stroke-dasharray:none;stroke-opacity:1"
           d="M 0,0 -0.9,-0.06 -1.8,-0.3 -2.64,-0.66 c -8.501,-4.911 -10.82,-23.541 -10.98,-32.28 v -4.56 c 0.081,-8.402 2.658,-28.902 11.82,-32.64 l 0.9,-0.24 0.9,-0.06 0.9,0.06 0.9,0.24 c 8.656,3.449 11.462,22.363 11.7,30.3 l 0.12,2.34 v 2.28 c 0.182,9.049 -2.093,29.491 -10.98,34.56 L 1.8,-0.3 0.9,-0.06 Z" /><g
           transform="translate(92.28,-82.26)"
           id="g20"><path
             id="path22"
             style="fill:none;stroke:#000000;stroke-width:0.72000003;stroke-linecap:round;stroke-linejoin:bevel;stroke-miterlimit:10;stroke-dasharray:none;stroke-opacity:1"
             d="M 0,0 -0.06,4.38 -0.3,8.76 -0.66,13.14 C -7.4,77.011 -59.662,125.806 -123.84,128.16 l -4.38,0.06 -4.38,-0.06 C -198.429,125.753 -251.523,74.477 -256.14,8.76 l -0.24,-4.38 -0.06,-4.38 0.06,-4.38 0.24,-4.38 c 4.474,-64.01 55.15,-114.686 119.16,-119.16 l 4.38,-0.24 4.38,-0.06 c 65.841,0.096 120.681,49.603 127.56,115.08 l 0.36,4.38 0.24,4.38 z" /><g
             transform="translate(-241.92,59.34)"
             id="g24"><path
               id="path26"
               style="fill:none;stroke:#000000;stroke-width:0.72000003;stroke-linecap:round;stroke-linejoin:bevel;stroke-miterlimit:10;stroke-dasharray:none;stroke-opacity:1"
               d="m 0,0 -4.02,-1.32 -3.96,-1.38 -3.84,-1.38 c -30.239,-10.719 -77.991,-39.365 -47.88,-75.9 l 1.74,-1.92 1.86,-1.92 1.98,-1.92 c 15.607,-14.093 37.519,-22.903 57.36,-29.04 l 4.2,-1.2 4.26,-1.2 c 30.337,-8.066 61.845,-11.715 93.18,-12.6 l 10.44,-0.12 h 5.28 l 10.5,0.24 5.22,0.18 c 29.131,1.221 59.221,5.205 87.36,12.96 l 4.26,1.26 4.14,1.26 c 19.114,5.935 41.413,15.37 56.1,29.34 l 1.92,1.92 1.8,1.92 1.68,1.98 1.5,1.98 c 8.411,11.681 9.551,24.187 2.16,36.72 l -1.32,1.98 -1.38,1.98 c -12.074,15.839 -33.785,26.202 -52.02,32.94 l -3.9,1.38 -4.02,1.32 -4.08,1.26 -4.2,1.26" /><g
               transform="translate(222.36,8.76)"
               id="g28"><path
                 id="path30"
                 style="fill:none;stroke:#000000;stroke-width:0.72000003;stroke-linecap:round;stroke-linejoin:bevel;stroke-miterlimit:10;stroke-dasharray:none;stroke-opacity:1"
                 d="m 0,0 1.02,4.26 c 21.982,95.995 -25.189,126.029 -98.82,58.62 l -3.12,-3" /><g
                 transform="translate(-214.08,-141.18)"
                 id="g32"><path
                   id="path34"
                   style="fill:none;stroke:#000000;stroke-width:0.72000003;stroke-linecap:round;stroke-linejoin:bevel;stroke-miterlimit:10;stroke-dasharray:none;stroke-opacity:1"
                   d="m 0,0 -0.78,-4.14 c -16.361,-87.872 28.936,-111.4 95.52,-53.64 l 3.12,2.82" /><g
                   transform="translate(118.02,-54.54)"
                   id="g36"><path
                     id="path38"
                     style="fill:none;stroke:#000000;stroke-width:0.72000003;stroke-linecap:round;stroke-linejoin:bevel;stroke-miterlimit:10;stroke-dasharray:none;stroke-opacity:1"
                     d="M 0,0 3.24,-2.88 C 74.85,-64.961 117.178,-32.118 97.86,56.58 L 96.9,60.84" /><g
                     transform="translate(-15,255.84)"
                     id="g40"><path
                       id="path42"
                       style="fill:none;stroke:#000000;stroke-width:0.72000003;stroke-linecap:round;stroke-linejoin:bevel;stroke-miterlimit:10;stroke-dasharray:none;stroke-opacity:1"
                       d="m 0,0 -3.18,3 c -68.45,62.966 -118.997,42.514 -99.9,-52.8 l 0.9,-4.2" /></g></g></g></g></g></g></g></g></g></svg>