<?xml version="1.0" encoding="UTF-8" standalone="no"?>
<svg
   xmlns:dc="http://purl.org/dc/elements/1.1/"
   xmlns:cc="http://creativecommons.org/ns#"
   xmlns:rdf="http://www.w3.org/1999/02/22-rdf-syntax-ns#"
   xmlns:svg="http://www.w3.org/2000/svg"
   xmlns="http://www.w3.org/2000/svg"
   viewBox="0 0 793.62665 1122.6667"
   height="1122.6667"
   width="793.62665"
   xml:space="preserve"
   id="svg2"
   version="1.1"><metadata
     id="metadata8"><rdf:RDF><cc:Work
         rdf:about=""><dc:format>image/svg+xml</dc:format><dc:type
           rdf:resource="http://purl.org/dc/dcmitype/StillImage" /></cc:Work></rdf:RDF></metadata><defs
     id="defs6" /><g
     transform="matrix(1.3333333,0,0,-1.3333333,0,1122.6667)"
     id="g10"><g
       transform="translate(389.4,303.2)"
       id="g12"><path
         id="path14"
         style="fill:none;stroke:#000000;stroke-width:0.72000003;stroke-linecap:round;stroke-linejoin:round;stroke-miterlimit:10;stroke-dasharray:none;stroke-opacity:1"
         d="M 0,0 -11.28,-25.56" /></g><g
       transform="translate(355.5,253.58)"
       id="g16"><path
         id="path18"
         style="fill:none;stroke:#000000;stroke-width:0.72000003;stroke-linecap:round;stroke-linejoin:bevel;stroke-miterlimit:10;stroke-dasharray:none;stroke-opacity:1"
         d="m 0,0 2.46,1.38 c 7.994,4.781 14.704,11.896 18.9,20.22 l 1.2,2.52" /><g
         transform="translate(-45.12,-7.26)"
         id="g20"><path
           id="path22"
           style="fill:none;stroke:#000000;stroke-width:0.72000003;stroke-linecap:round;stroke-linejoin:bevel;stroke-miterlimit:10;stroke-dasharray:none;stroke-opacity:1"
           d="m 0,0 3.24,-0.48 c 13.32,-1.554 26.764,0.633 38.94,6.24 l 2.94,1.5" /><g
           transform="translate(-51.66,21.42)"
           id="g24"><path
             id="path26"
             style="fill:none;stroke:#000000;stroke-width:0.72000003;stroke-linecap:round;stroke-linejoin:bevel;stroke-miterlimit:10;stroke-dasharray:none;stroke-opacity:1"
             d="m 0,0 3.54,-2.52 c 13.165,-8.751 28.325,-15.123 43.86,-18.12 l 4.26,-0.78" /><g
             transform="translate(-14.52,15)"
             id="g28"><path
               id="path30"
               style="fill:none;stroke:#000000;stroke-width:0.72000003;stroke-linecap:round;stroke-linejoin:bevel;stroke-miterlimit:10;stroke-dasharray:none;stroke-opacity:1"
               d="m 0,0 1.74,-2.46 c 2.978,-3.992 6.513,-7.549 10.38,-10.68 l 2.4,-1.86" /><g
               transform="translate(-12.12,28.92)"
               id="g32"><path
                 id="path34"
                 style="fill:none;stroke:#000000;stroke-width:0.72000003;stroke-linecap:round;stroke-linejoin:bevel;stroke-miterlimit:10;stroke-dasharray:none;stroke-opacity:1"
                 d="m 0,0 0.78,-3.42 c 1.936,-7.969 5.195,-15.6 9.42,-22.62 l 1.92,-2.94" /><g
                 transform="translate(-1.5,14.94)"
                 id="g36"><path
                   id="path38"
                   style="fill:none;stroke:#000000;stroke-width:0.72000003;stroke-linecap:round;stroke-linejoin:bevel;stroke-miterlimit:10;stroke-dasharray:none;stroke-opacity:1"
                   d="m 0,0 0.12,-3.78 0.3,-3.72 0.48,-3.72 0.6,-3.72" /></g></g></g></g></g></g><g
       transform="translate(230.58,326.6)"
       id="g40"><path
         id="path42"
         style="fill:none;stroke:#000000;stroke-width:0.72000003;stroke-linecap:round;stroke-linejoin:round;stroke-miterlimit:10;stroke-dasharray:none;stroke-opacity:1"
         d="M 0,0 -5.76,1.5" /></g><g
       transform="translate(204.36,346.64)"
       id="g44"><path
         id="path46"
         style="fill:none;stroke:#000000;stroke-width:0.72000003;stroke-linecap:round;stroke-linejoin:bevel;stroke-miterlimit:10;stroke-dasharray:none;stroke-opacity:1"
         d="m 0,0 0.84,-2.04 c 3.602,-7.528 9.639,-13.063 17.52,-15.84 l 2.16,-0.66" /><g
         transform="translate(3.3,22.92)"
         id="g48"><path
           id="path50"
           style="fill:none;stroke:#000000;stroke-width:0.72000003;stroke-linecap:round;stroke-linejoin:bevel;stroke-miterlimit:10;stroke-dasharray:none;stroke-opacity:1"
           d="M 0,0 -1.14,-1.62 C -4.781,-7.283 -5.821,-14.535 -3.96,-21 l 0.6,-1.92" /><g
           transform="translate(18.12,9.9)"
           id="g52"><path
             id="path54"
             style="fill:none;stroke:#000000;stroke-width:0.72000003;stroke-linecap:round;stroke-linejoin:bevel;stroke-miterlimit:10;stroke-dasharray:none;stroke-opacity:1"
             d="M 0,0 -1.92,-0.24 C -7.654,-1.13 -13.091,-4.022 -16.86,-8.46 L -18.12,-9.9" /></g></g></g><g
       transform="translate(225.72,379.52)"
       id="g56"><path
         id="path58"
         style="fill:none;stroke:#000000;stroke-width:0.72000003;stroke-linecap:round;stroke-linejoin:round;stroke-miterlimit:10;stroke-dasharray:none;stroke-opacity:1"
         d="M 0,0 -0.6,27.18" /><g
         transform="translate(0.9,70.2)"
         id="g60"><path
           id="path62"
           style="fill:none;stroke:#000000;stroke-width:0.72000003;stroke-linecap:round;stroke-linejoin:round;stroke-miterlimit:10;stroke-dasharray:none;stroke-opacity:1"
           d="m 0,0 -0.72,-8.58 -0.48,-8.58 -0.3,-8.64 -0.12,-8.64 0.12,-8.58" /></g></g><g
       transform="translate(244.44,509.78)"
       id="g64"><path
         id="path66"
         style="fill:none;stroke:#000000;stroke-width:0.72000003;stroke-linecap:round;stroke-linejoin:bevel;stroke-miterlimit:10;stroke-dasharray:none;stroke-opacity:1"
         d="m 0,0 -2.34,-4.68 c -7.583,-15.765 -12.613,-32.754 -14.88,-50.1 L -17.76,-60" /><g
         transform="translate(28.14,26.82)"
         id="g68"><path
           id="path70"
           style="fill:none;stroke:#000000;stroke-width:0.72000003;stroke-linecap:round;stroke-linejoin:bevel;stroke-miterlimit:10;stroke-dasharray:none;stroke-opacity:1"
           d="m 0,0 -2.7,-1.38 c -9.5,-4.814 -18.645,-13.522 -23.88,-22.8 l -1.5,-2.64" /><g
           transform="translate(39.3,9.78)"
           id="g72"><path
             id="path74"
             style="fill:none;stroke:#000000;stroke-width:0.72000003;stroke-linecap:round;stroke-linejoin:bevel;stroke-miterlimit:10;stroke-dasharray:none;stroke-opacity:1"
             d="M 0,0 -4.02,-0.3 C -14.866,-1.221 -25.547,-3.958 -35.58,-8.16 L -39.3,-9.78" /><g
             transform="translate(39.12,-5.34)"
             id="g76"><path
               id="path78"
               style="fill:none;stroke:#000000;stroke-width:0.72000003;stroke-linecap:round;stroke-linejoin:bevel;stroke-miterlimit:10;stroke-dasharray:none;stroke-opacity:1"
               d="M 0,0 -3.78,1.14 C -13.706,4.167 -24.732,5.609 -35.1,5.46 L -39.12,5.34" /><g
               transform="translate(29.52,-22.44)"
               id="g80"><path
                 id="path82"
                 style="fill:none;stroke:#000000;stroke-width:0.72000003;stroke-linecap:round;stroke-linejoin:bevel;stroke-miterlimit:10;stroke-dasharray:none;stroke-opacity:1"
                 d="m 0,0 -1.8,2.52 c -6.331,8.405 -14.98,15.004 -24.78,18.84 l -2.94,1.08" /><g
                 transform="translate(9.54,-26.58)"
                 id="g84"><path
                   id="path86"
                   style="fill:none;stroke:#000000;stroke-width:0.72000003;stroke-linecap:round;stroke-linejoin:bevel;stroke-miterlimit:10;stroke-dasharray:none;stroke-opacity:1"
                   d="m 0,0 -0.36,3.12 c -1.268,7.632 -3.546,14.07 -7.44,20.76 l -1.74,2.7" /></g></g></g></g></g></g><g
       transform="translate(390.12,491.96)"
       id="g88"><path
         id="path90"
         style="fill:none;stroke:#000000;stroke-width:0.72000003;stroke-linecap:round;stroke-linejoin:round;stroke-miterlimit:10;stroke-dasharray:none;stroke-opacity:1"
         d="M 0,0 H -72.36" /></g><g
       transform="translate(317.76,491.96)"
       id="g92"><path
         id="path94"
         style="fill:none;stroke:#000000;stroke-width:0.72000003;stroke-linecap:round;stroke-linejoin:bevel;stroke-miterlimit:10;stroke-dasharray:none;stroke-opacity:1"
         d="m 0,0 -4.8,-0.06 c -8.204,-0.248 -15.895,-1.251 -23.94,-2.82 l -4.74,-1.08 -0.84,-0.3 c -1.449,-0.712 -2.349,-1.997 -2.52,-3.6 l 0.06,-0.9 0.18,-0.96 0.36,-0.96 0.48,-0.84 0.6,-0.78 0.78,-0.66 0.84,-0.54" /><g
         transform="translate(-33.6,-13.44)"
         id="g96"><path
           id="path98"
           style="fill:none;stroke:#000000;stroke-width:0.72000003;stroke-linecap:round;stroke-linejoin:bevel;stroke-miterlimit:10;stroke-dasharray:none;stroke-opacity:1"
           d="M 0,0 1.8,-0.84 3.66,-1.56 5.58,-2.1 7.5,-2.52 9.48,-2.7" /></g></g><g
       transform="translate(293.64,475.76)"
       id="g100"><path
         id="path102"
         style="fill:none;stroke:#000000;stroke-width:0.72000003;stroke-linecap:round;stroke-linejoin:round;stroke-miterlimit:10;stroke-dasharray:none;stroke-opacity:1"
         d="m 0,0 6.24,-0.3 6.24,0.06 6.24,0.3 6.24,0.6 24.3,0.9 h 50.46" /></g><g
       transform="translate(393.36,477.38)"
       id="g104"><path
         id="path106"
         style="fill:none;stroke:#000000;stroke-width:0.72000003;stroke-linecap:round;stroke-linejoin:bevel;stroke-miterlimit:10;stroke-dasharray:none;stroke-opacity:1"
         d="m 0,0 1.02,0.06 1.02,0.3 0.96,0.36 0.84,0.6 0.78,0.66 0.6,0.84 0.54,0.9 c 1.384,3.218 0.723,6.457 -1.8,8.88 l -0.84,0.66" /><g
         transform="translate(3.06,13.2)"
         id="g108"><path
           id="path110"
           style="fill:none;stroke:#000000;stroke-width:0.72000003;stroke-linecap:round;stroke-linejoin:bevel;stroke-miterlimit:10;stroke-dasharray:none;stroke-opacity:1"
           d="M 0,0 -1.02,0.6 -2.22,0.96 -3.36,1.2" /><g
           transform="translate(-3.36,1.14)"
           id="g112"><path
             id="path114"
             style="fill:none;stroke:#000000;stroke-width:0.72000003;stroke-linecap:round;stroke-linejoin:bevel;stroke-miterlimit:10;stroke-dasharray:none;stroke-opacity:1"
             d="M 0,0 -2.94,0.24" /></g></g></g><g
       transform="translate(389.4,303.2)"
       id="g116"><path
         id="path118"
         style="fill:none;stroke:#000000;stroke-width:0.72000003;stroke-linecap:round;stroke-linejoin:round;stroke-miterlimit:10;stroke-dasharray:none;stroke-opacity:1"
         d="M 0,0 7.92,0.96" /></g><g
       transform="translate(397.38,304.22)"
       id="g120"><path
         id="path122"
         style="fill:none;stroke:#000000;stroke-width:0.72000003;stroke-linecap:round;stroke-linejoin:bevel;stroke-miterlimit:10;stroke-dasharray:none;stroke-opacity:1"
         d="M 0,0 1.5,0.24 C 4.036,0.893 6.366,2.296 8.16,4.2 L 9.12,5.4 9.9,6.6 c 1.79,3.324 2.235,7.418 0.9,10.98 l -0.6,1.32" /><g
         transform="translate(10.2,18.84)"
         id="g124"><path
           id="path126"
           style="fill:none;stroke:#000000;stroke-width:0.72000003;stroke-linecap:round;stroke-linejoin:bevel;stroke-miterlimit:10;stroke-dasharray:none;stroke-opacity:1"
           d="m 0,0 -1.08,1.86 -1.2,1.8 -1.38,1.62 -1.5,1.5 -1.68,1.32" /><g
           transform="translate(-10.56,11.16)"
           id="g128"><path
             id="path130"
             style="fill:none;stroke:#000000;stroke-width:0.72000003;stroke-linecap:round;stroke-linejoin:bevel;stroke-miterlimit:10;stroke-dasharray:none;stroke-opacity:1"
             d="M 0,0 3.72,-2.94" /><g
             transform="translate(-0.78,3)"
             id="g132"><path
               id="path134"
               style="fill:none;stroke:#000000;stroke-width:0.72000003;stroke-linecap:round;stroke-linejoin:bevel;stroke-miterlimit:10;stroke-dasharray:none;stroke-opacity:1"
               d="M 0,0 -0.18,-0.66 V -1.32 L 0,-1.98 0.3,-2.58 0.72,-3.06" /><g
               id="g136"><path
                 id="path138"
                 style="fill:none;stroke:#000000;stroke-width:0.72000003;stroke-linecap:round;stroke-linejoin:bevel;stroke-miterlimit:10;stroke-dasharray:none;stroke-opacity:1"
                 d="m 0,0 1.26,3.3 1.08,3.36 0.9,3.42 0.72,3.48 1.08,6.06 C 6.628,29.933 7.469,39.902 7.5,50.34 l -0.06,6.18" /><g
                 transform="translate(8.28,58.56)"
                 id="g140"><path
                   id="path142"
                   style="fill:none;stroke:#000000;stroke-width:0.72000003;stroke-linecap:round;stroke-linejoin:bevel;stroke-miterlimit:10;stroke-dasharray:none;stroke-opacity:1"
                   d="m 0,0 -0.42,-0.6 -0.3,-0.72 -0.06,-0.72" /><g
                   transform="translate(2.1,1.5)"
                   id="g144"><path
                     id="path146"
                     style="fill:none;stroke:#000000;stroke-width:0.72000003;stroke-linecap:round;stroke-linejoin:bevel;stroke-miterlimit:10;stroke-dasharray:none;stroke-opacity:1"
                     d="M 0,0 -1.14,-0.6 -2.1,-1.5" /><g
                     transform="translate(-0.06,0.06)"
                     id="g148"><path
                       id="path150"
                       style="fill:none;stroke:#000000;stroke-width:0.72000003;stroke-linecap:round;stroke-linejoin:bevel;stroke-miterlimit:10;stroke-dasharray:none;stroke-opacity:1"
                       d="m 0,0 1.62,0.78 c 2.83,1.727 4.711,3.153 6.6,5.94 l 0.96,1.5" /><g
                       transform="translate(9.18,8.28)"
                       id="g152"><path
                         id="path154"
                         style="fill:none;stroke:#000000;stroke-width:0.72000003;stroke-linecap:round;stroke-linejoin:bevel;stroke-miterlimit:10;stroke-dasharray:none;stroke-opacity:1"
                         d="M 0,0 1.32,2.4 C 7.018,13.778 7.53,27.47 2.7,39.24 L 1.62,41.7 0.6,43.74 c -4.259,7.481 -10.844,13.016 -18.96,15.9 l -2.22,0.66" /><g
                         transform="translate(-21,61.5)"
                         id="g156"><path
                           id="path158"
                           style="fill:none;stroke:#000000;stroke-width:0.72000003;stroke-linecap:round;stroke-linejoin:bevel;stroke-miterlimit:10;stroke-dasharray:none;stroke-opacity:1"
                           d="m 0,0 -0.12,-0.36 0.06,-0.3 0.18,-0.3 0.3,-0.18" /><g
                           id="g160"><path
                             id="path162"
                             style="fill:none;stroke:#000000;stroke-width:0.72000003;stroke-linecap:round;stroke-linejoin:bevel;stroke-miterlimit:10;stroke-dasharray:none;stroke-opacity:1"
                             d="M 0,0 0.66,1.14 1.14,2.34 1.44,3.66 1.56,4.92 1.44,6.24 0.96,8.4 0.3,10.44" /></g></g></g></g></g></g></g></g></g></g></g><g
       transform="translate(242.46,285.26)"
       id="g164"><path
         id="path166"
         style="fill:none;stroke:#000000;stroke-width:0.72000003;stroke-linecap:round;stroke-linejoin:round;stroke-miterlimit:10;stroke-dasharray:none;stroke-opacity:1"
         d="M 0,0 -23.34,-2.94" /></g><g
       transform="translate(217.08,283.46)"
       id="g168"><path
         id="path170"
         style="fill:none;stroke:#000000;stroke-width:0.72000003;stroke-linecap:round;stroke-linejoin:bevel;stroke-miterlimit:10;stroke-dasharray:none;stroke-opacity:1"
         d="m 0,0 0.3,-0.48 0.54,-0.36 0.54,-0.18 0.6,-0.06" /></g><g
       transform="translate(217.08,283.46)"
       id="g172"><path
         id="path174"
         style="fill:none;stroke:#000000;stroke-width:0.72000003;stroke-linecap:round;stroke-linejoin:round;stroke-miterlimit:10;stroke-dasharray:none;stroke-opacity:1"
         d="M 0,0 3.96,21.24" /></g><g
       transform="translate(221.04,304.7)"
       id="g176"><path
         id="path178"
         style="fill:none;stroke:#000000;stroke-width:0.72000003;stroke-linecap:round;stroke-linejoin:bevel;stroke-miterlimit:10;stroke-dasharray:none;stroke-opacity:1"
         d="m 0,0 0.06,0.66 -0.12,0.6 -0.3,0.6 -0.42,0.48 -0.48,0.3 -0.6,0.24" /></g><g
       transform="translate(219.18,307.58)"
       id="g180"><path
         id="path182"
         style="fill:none;stroke:#000000;stroke-width:0.72000003;stroke-linecap:round;stroke-linejoin:round;stroke-miterlimit:10;stroke-dasharray:none;stroke-opacity:1"
         d="M 0,0 -38.28,5.16" /></g><g
       transform="translate(179.76,317.54)"
       id="g184"><path
         id="path186"
         style="fill:none;stroke:#000000;stroke-width:0.72000003;stroke-linecap:round;stroke-linejoin:bevel;stroke-miterlimit:10;stroke-dasharray:none;stroke-opacity:1"
         d="m 0,0 -0.48,-0.42 c -1.241,-1.394 -0.667,-3.497 1.02,-4.2 l 0.6,-0.18" /></g><g
       transform="translate(179.76,317.6)"
       id="g188"><path
         id="path190"
         style="fill:none;stroke:#000000;stroke-width:0.72000003;stroke-linecap:round;stroke-linejoin:round;stroke-miterlimit:10;stroke-dasharray:none;stroke-opacity:1"
         d="M 0,0 16.8,21.3" /></g><g
       transform="translate(196.5,338.84)"
       id="g192"><path
         id="path194"
         style="fill:none;stroke:#000000;stroke-width:0.72000003;stroke-linecap:round;stroke-linejoin:bevel;stroke-miterlimit:10;stroke-dasharray:none;stroke-opacity:1"
         d="M 0,0 0.54,0.84 0.96,1.74 1.2,2.7 1.32,3.72 1.26,4.74 1.02,5.7" /></g><g
       transform="translate(197.52,344.54)"
       id="g196"><path
         id="path198"
         style="fill:none;stroke:#000000;stroke-width:0.72000003;stroke-linecap:round;stroke-linejoin:round;stroke-miterlimit:10;stroke-dasharray:none;stroke-opacity:1"
         d="M 0,0 -52.74,26.46" /></g><g
       transform="translate(144.18,376.22)"
       id="g200"><path
         id="path202"
         style="fill:none;stroke:#000000;stroke-width:0.72000003;stroke-linecap:round;stroke-linejoin:bevel;stroke-miterlimit:10;stroke-dasharray:none;stroke-opacity:1"
         d="M 0,0 -0.48,-0.48 C -1.524,-1.87 -1.337,-3.685 0,-4.8 l 0.6,-0.36" /></g><g
       transform="translate(144.18,376.22)"
       id="g204"><path
         id="path206"
         style="fill:none;stroke:#000000;stroke-width:0.72000003;stroke-linecap:round;stroke-linejoin:round;stroke-miterlimit:10;stroke-dasharray:none;stroke-opacity:1"
         d="M 0,0 43.38,29.16" /></g><g
       transform="translate(187.56,405.38)"
       id="g208"><path
         id="path210"
         style="fill:none;stroke:#000000;stroke-width:0.72000003;stroke-linecap:round;stroke-linejoin:bevel;stroke-miterlimit:10;stroke-dasharray:none;stroke-opacity:1"
         d="M 0,0 0.54,0.42 0.9,0.96 1.14,1.62 1.26,2.28 1.2,2.94 0.96,3.54 0.6,4.14" /></g><g
       transform="translate(188.22,409.58)"
       id="g212"><path
         id="path214"
         style="fill:none;stroke:#000000;stroke-width:0.72000003;stroke-linecap:round;stroke-linejoin:round;stroke-miterlimit:10;stroke-dasharray:none;stroke-opacity:1"
         d="M 0,0 -67.38,39.54" /></g><g
       transform="translate(121.2,452.18)"
       id="g216"><path
         id="path218"
         style="fill:none;stroke:#000000;stroke-width:0.72000003;stroke-linecap:round;stroke-linejoin:bevel;stroke-miterlimit:10;stroke-dasharray:none;stroke-opacity:1"
         d="m 0,0 -0.48,-0.24 c -0.834,-0.599 -0.967,-1.686 -0.3,-2.46 l 0.42,-0.36" /></g><g
       transform="translate(121.2,452.24)"
       id="g220"><path
         id="path222"
         style="fill:none;stroke:#000000;stroke-width:0.72000003;stroke-linecap:round;stroke-linejoin:round;stroke-miterlimit:10;stroke-dasharray:none;stroke-opacity:1"
         d="M 0,0 25.86,8.52" /></g><g
       transform="translate(147.06,460.82)"
       id="g224"><path
         id="path226"
         style="fill:none;stroke:#000000;stroke-width:0.72000003;stroke-linecap:round;stroke-linejoin:bevel;stroke-miterlimit:10;stroke-dasharray:none;stroke-opacity:1"
         d="m 0,0 2.58,0.96 c 3.869,1.456 8.5,4.381 11.58,7.14 l 1.98,1.92" /><g
         transform="translate(45.9,26.04)"
         id="g228"><path
           id="path230"
           style="fill:none;stroke:#000000;stroke-width:0.72000003;stroke-linecap:round;stroke-linejoin:bevel;stroke-miterlimit:10;stroke-dasharray:none;stroke-opacity:1"
           d="m 0,0 -3.06,-0.66 c -9.312,-2.518 -17.218,-6.855 -24.42,-13.26 l -2.22,-2.16" /><g
           transform="translate(-0.06,0.06)"
           id="g232"><path
             id="path234"
             style="fill:none;stroke:#000000;stroke-width:0.72000003;stroke-linecap:round;stroke-linejoin:bevel;stroke-miterlimit:10;stroke-dasharray:none;stroke-opacity:1"
             d="M 0,0 0.42,0.18 0.78,0.54 0.96,0.96 V 1.38 L 0.78,1.86 0,2.94 -0.96,3.96 -1.98,4.86" /><g
             transform="translate(-6.24,9.48)"
             id="g236"><path
               id="path238"
               style="fill:none;stroke:#000000;stroke-width:0.72000003;stroke-linecap:round;stroke-linejoin:bevel;stroke-miterlimit:10;stroke-dasharray:none;stroke-opacity:1"
               d="M 0,0 1.26,-1.68 2.7,-3.18 4.32,-4.56" /><g
               transform="translate(-14.04,31.26)"
               id="g240"><path
                 id="path242"
                 style="fill:none;stroke:#000000;stroke-width:0.72000003;stroke-linecap:round;stroke-linejoin:bevel;stroke-miterlimit:10;stroke-dasharray:none;stroke-opacity:1"
                 d="M 0,0 1.14,-4.14 C 3.803,-12.476 7.087,-20.144 11.7,-27.6 l 2.28,-3.6" /><g
                 id="g244"><path
                   id="path246"
                   style="fill:none;stroke:#000000;stroke-width:0.72000003;stroke-linecap:round;stroke-linejoin:bevel;stroke-miterlimit:10;stroke-dasharray:none;stroke-opacity:1"
                   d="M 0,0 -0.54,1.68 -1.2,3.3 -2.04,4.92 -3,6.36 -4.08,7.74" /></g></g></g></g></g></g><g
       transform="translate(151.56,558.32)"
       id="g248"><path
         id="path250"
         style="fill:none;stroke:#000000;stroke-width:0.72000003;stroke-linecap:round;stroke-linejoin:round;stroke-miterlimit:10;stroke-dasharray:none;stroke-opacity:1"
         d="m 0,0 3.9,-5.94 4.14,-5.82 4.38,-5.7 4.56,-5.46" /></g><g
       transform="translate(153.42,561.38)"
       id="g252"><path
         id="path254"
         style="fill:none;stroke:#000000;stroke-width:0.72000003;stroke-linecap:round;stroke-linejoin:bevel;stroke-miterlimit:10;stroke-dasharray:none;stroke-opacity:1"
         d="M 0,0 -0.6,-0.06 -1.2,-0.3 -1.62,-0.72 -1.98,-1.26 -2.1,-1.86 -2.04,-2.46 -1.8,-3" /><g
         transform="translate(10.08,-1.2)"
         id="g256"><path
           id="path258"
           style="fill:none;stroke:#000000;stroke-width:0.72000003;stroke-linecap:round;stroke-linejoin:bevel;stroke-miterlimit:10;stroke-dasharray:none;stroke-opacity:1"
           d="m 0,0 -4.98,0.78 -5.1,0.48" /></g></g><g
       transform="translate(163.5,560.24)"
       id="g260"><path
         id="path262"
         style="fill:none;stroke:#000000;stroke-width:0.72000003;stroke-linecap:round;stroke-linejoin:round;stroke-miterlimit:10;stroke-dasharray:none;stroke-opacity:1"
         d="m 0,0 9.18,-1.56 9.18,-1.26 9.18,-1.02 9.3,-0.78 9.24,-0.42" /></g><g
       transform="translate(226.02,552.08)"
       id="g264"><path
         id="path266"
         style="fill:none;stroke:#000000;stroke-width:0.72000003;stroke-linecap:round;stroke-linejoin:bevel;stroke-miterlimit:10;stroke-dasharray:none;stroke-opacity:1"
         d="m 0,0 -3.18,1.02 -3.24,0.78 -3.3,0.66 -3.36,0.42 -3.3,0.18" /><g
         id="g268"><path
           id="path270"
           style="fill:none;stroke:#000000;stroke-width:0.72000003;stroke-linecap:round;stroke-linejoin:bevel;stroke-miterlimit:10;stroke-dasharray:none;stroke-opacity:1"
           d="M 0,0 0.96,-0.24 C 3.652,-0.791 6.568,0.539 7.98,2.88 L 8.4,3.78" /><g
           transform="translate(8.46,3.78)"
           id="g272"><path
             id="path274"
             style="fill:none;stroke:#000000;stroke-width:0.72000003;stroke-linecap:round;stroke-linejoin:bevel;stroke-miterlimit:10;stroke-dasharray:none;stroke-opacity:1"
             d="M 0,0 0.84,2.34 1.44,4.68 1.92,7.08 2.1,9.54 2.16,12" /><g
             transform="translate(4.38,33.18)"
             id="g276"><path
               id="path278"
               style="fill:none;stroke:#000000;stroke-width:0.72000003;stroke-linecap:round;stroke-linejoin:bevel;stroke-miterlimit:10;stroke-dasharray:none;stroke-opacity:1"
               d="m 0,0 -0.78,-3.48 -0.6,-3.48 -0.42,-3.54 -0.3,-3.54 -0.12,-3.54 0.06,-3.6" /><g
               transform="translate(-0.06)"
               id="g280"><path
                 id="path282"
                 style="fill:none;stroke:#000000;stroke-width:0.72000003;stroke-linecap:round;stroke-linejoin:bevel;stroke-miterlimit:10;stroke-dasharray:none;stroke-opacity:1"
                 d="m 0,0 0.36,1.86 c 0.434,3.672 0.344,5.92 -0.72,9.48 l -0.6,1.8" /><g
                 transform="translate(-4.02,41.46)"
                 id="g284"><path
                   id="path286"
                   style="fill:none;stroke:#000000;stroke-width:0.72000003;stroke-linecap:round;stroke-linejoin:bevel;stroke-miterlimit:10;stroke-dasharray:none;stroke-opacity:1"
                   d="m 0,0 -0.36,-2.82 c -0.912,-7.967 -0.068,-15.128 2.4,-22.74 l 1.02,-2.7" /></g></g></g></g></g></g><g
       transform="translate(234.78,630.5)"
       id="g288"><path
         id="path290"
         style="fill:none;stroke:#000000;stroke-width:0.72000003;stroke-linecap:round;stroke-linejoin:round;stroke-miterlimit:10;stroke-dasharray:none;stroke-opacity:1"
         d="M 0,0 0.66,4.68 1.08,9.36 1.2,14.1 1.08,18.78" /></g><g
       transform="translate(235.8,649.28)"
       id="g292"><path
         id="path294"
         style="fill:none;stroke:#000000;stroke-width:0.72000003;stroke-linecap:round;stroke-linejoin:bevel;stroke-miterlimit:10;stroke-dasharray:none;stroke-opacity:1"
         d="m 0,0 -0.24,2.16 -0.42,2.16 -0.6,2.04" /><g
         transform="translate(1.98,8.7)"
         id="g296"><path
           id="path298"
           style="fill:none;stroke:#000000;stroke-width:0.72000003;stroke-linecap:round;stroke-linejoin:bevel;stroke-miterlimit:10;stroke-dasharray:none;stroke-opacity:1"
           d="M 0,0 -0.48,0.3 C -1.939,0.75 -3.311,-0.181 -3.3,-1.74 l 0.12,-0.54" /></g></g><g
       transform="translate(247.32,650.36)"
       id="g300"><path
         id="path302"
         style="fill:none;stroke:#000000;stroke-width:0.72000003;stroke-linecap:round;stroke-linejoin:round;stroke-miterlimit:10;stroke-dasharray:none;stroke-opacity:1"
         d="M 0,0 -9.54,7.56" /></g><g
       transform="translate(273.78,617.54)"
       id="g304"><path
         id="path306"
         style="fill:none;stroke:#000000;stroke-width:0.72000003;stroke-linecap:round;stroke-linejoin:bevel;stroke-miterlimit:10;stroke-dasharray:none;stroke-opacity:1"
         d="M 0,0 -1.8,3.42 C -7.375,13.574 -14.824,22.661 -23.52,30.3 l -2.94,2.46" /><g
         transform="translate(0.06)"
         id="g308"><path
           id="path310"
           style="fill:none;stroke:#000000;stroke-width:0.72000003;stroke-linecap:round;stroke-linejoin:bevel;stroke-miterlimit:10;stroke-dasharray:none;stroke-opacity:1"
           d="m 0,0 1.2,-2.16 c 2.182,-3.552 4.913,-6.814 8.28,-9.3 l 2.04,-1.5" /><g
           transform="translate(30.42,-28.68)"
           id="g312"><path
             id="path314"
             style="fill:none;stroke:#000000;stroke-width:0.72000003;stroke-linecap:round;stroke-linejoin:bevel;stroke-miterlimit:10;stroke-dasharray:none;stroke-opacity:1"
             d="m 0,0 -2.94,2.88 -3,2.82 -3.06,2.7 -3.24,2.58 -3.3,2.46 -3.36,2.34" /></g></g></g><g
       transform="translate(304.26,588.86)"
       id="g316"><path
         id="path318"
         style="fill:none;stroke:#000000;stroke-width:0.72000003;stroke-linecap:round;stroke-linejoin:round;stroke-miterlimit:10;stroke-dasharray:none;stroke-opacity:1"
         d="m 0,0 7.5,-7.68 7.74,-7.5" /></g><g
       transform="translate(319.5,573.68)"
       id="g320"><path
         id="path322"
         style="fill:none;stroke:#000000;stroke-width:0.72000003;stroke-linecap:round;stroke-linejoin:bevel;stroke-miterlimit:10;stroke-dasharray:none;stroke-opacity:1"
         d="M 0,0 0.6,-0.42 1.32,-0.66 2.04,-0.78 2.76,-0.66 3.48,-0.42 4.08,0" /><g
         transform="translate(4.02)"
         id="g324"><path
           id="path326"
           style="fill:none;stroke:#000000;stroke-width:0.72000003;stroke-linecap:round;stroke-linejoin:bevel;stroke-miterlimit:10;stroke-dasharray:none;stroke-opacity:1"
           d="M 0,0 2.04,2.04 3.9,4.2 5.64,6.42 7.2,8.82 8.64,11.22 9.9,13.8" /></g></g><g
       transform="translate(351.48,621.56)"
       id="g328"><path
         id="path330"
         style="fill:none;stroke:#000000;stroke-width:0.72000003;stroke-linecap:round;stroke-linejoin:round;stroke-miterlimit:10;stroke-dasharray:none;stroke-opacity:1"
         d="m 0,0 -4.92,-8.34 -4.62,-8.46 -4.38,-8.58 -4.14,-8.7" /><g
         id="g332"><path
           id="path334"
           style="fill:none;stroke:#000000;stroke-width:0.72000003;stroke-linecap:round;stroke-linejoin:round;stroke-miterlimit:10;stroke-dasharray:none;stroke-opacity:1"
           d="m 0,0 1.74,3.12 1.62,3.3 1.38,3.3 1.2,3.42 1.02,3.48" /></g></g><g
       transform="translate(363.84,638.18)"
       id="g336"><path
         id="path338"
         style="fill:none;stroke:#000000;stroke-width:0.72000003;stroke-linecap:round;stroke-linejoin:bevel;stroke-miterlimit:10;stroke-dasharray:none;stroke-opacity:1"
         d="m 0,0 -0.24,0.66 c -1.215,1.937 -3.705,1.937 -4.92,0 L -5.4,0" /></g><g
       transform="translate(363.9,638.18)"
       id="g340"><path
         id="path342"
         style="fill:none;stroke:#000000;stroke-width:0.72000003;stroke-linecap:round;stroke-linejoin:round;stroke-miterlimit:10;stroke-dasharray:none;stroke-opacity:1"
         d="m 0,0 1.32,-4.74 1.44,-4.74 1.68,-4.68 1.8,-4.62" /></g><g
       transform="translate(378.18,578.48)"
       id="g344"><path
         id="path346"
         style="fill:none;stroke:#000000;stroke-width:0.72000003;stroke-linecap:round;stroke-linejoin:bevel;stroke-miterlimit:10;stroke-dasharray:none;stroke-opacity:1"
         d="m 0,0 -0.06,4.2 c -0.454,11.364 -2.538,22.146 -6.48,32.82 l -1.56,3.9" /></g><g
       transform="translate(374.94,547.76)"
       id="g348"><path
         id="path350"
         style="fill:none;stroke:#000000;stroke-width:0.72000003;stroke-linecap:round;stroke-linejoin:round;stroke-miterlimit:10;stroke-dasharray:none;stroke-opacity:1"
         d="m 0,0 1.14,6.06 0.96,6.12 0.66,6.18 0.36,6.18 0.18,6.18" /></g><g
       transform="translate(375,547.76)"
       id="g352"><path
         id="path354"
         style="fill:none;stroke:#000000;stroke-width:0.72000003;stroke-linecap:round;stroke-linejoin:bevel;stroke-miterlimit:10;stroke-dasharray:none;stroke-opacity:1"
         d="m 0,0 -0.06,-0.78 c 0.146,-1.927 1.431,-3.4 3.42,-3.48 l 0.78,0.06" /></g><g
       transform="translate(379.14,543.5)"
       id="g356"><path
         id="path358"
         style="fill:none;stroke:#000000;stroke-width:0.72000003;stroke-linecap:round;stroke-linejoin:round;stroke-miterlimit:10;stroke-dasharray:none;stroke-opacity:1"
         d="m 0,0 4.44,0.9 4.44,1.2 4.38,1.44 4.26,1.62" /><g
         transform="translate(42.9,13.98)"
         id="g360"><path
           id="path362"
           style="fill:none;stroke:#000000;stroke-width:0.72000003;stroke-linecap:round;stroke-linejoin:round;stroke-miterlimit:10;stroke-dasharray:none;stroke-opacity:1"
           d="m 0,0 -6.42,-1.92 -6.42,-2.1 -6.3,-2.28 -6.24,-2.52" /></g></g><g
       transform="translate(422.04,557.54)"
       id="g364"><path
         id="path366"
         style="fill:none;stroke:#000000;stroke-width:0.72000003;stroke-linecap:round;stroke-linejoin:bevel;stroke-miterlimit:10;stroke-dasharray:none;stroke-opacity:1"
         d="M 0,0 3.66,1.26" /><g
         transform="translate(5.64,-0.3)"
         id="g368"><path
           id="path370"
           style="fill:none;stroke:#000000;stroke-width:0.72000003;stroke-linecap:round;stroke-linejoin:bevel;stroke-miterlimit:10;stroke-dasharray:none;stroke-opacity:1"
           d="M 0,0 -0.06,0.48 -0.24,0.9 -0.6,1.26 -1.02,1.5 -1.5,1.56 -1.98,1.44" /><g
           transform="translate(-4.44,-17.16)"
           id="g372"><path
             id="path374"
             style="fill:none;stroke:#000000;stroke-width:0.72000003;stroke-linecap:round;stroke-linejoin:bevel;stroke-miterlimit:10;stroke-dasharray:none;stroke-opacity:1"
             d="M 0,0 1.14,2.76 2.1,5.58 2.88,8.4 3.6,11.28 4.08,14.22 4.44,17.16" /></g></g></g><g
       transform="translate(396.48,490.58)"
       id="g376"><path
         id="path378"
         style="fill:none;stroke:#000000;stroke-width:0.72000003;stroke-linecap:round;stroke-linejoin:round;stroke-miterlimit:10;stroke-dasharray:none;stroke-opacity:1"
         d="m 0,0 4.38,6.78 c 7.233,11.333 13.444,23.172 19.14,35.34 l 3.3,7.32" /><g
         transform="translate(3.36,-6.24)"
         id="g380"><path
           id="path382"
           style="fill:none;stroke:#000000;stroke-width:0.72000003;stroke-linecap:round;stroke-linejoin:round;stroke-miterlimit:10;stroke-dasharray:none;stroke-opacity:1"
           d="M 0,0 7.32,-3.96" /></g></g><g
       transform="translate(407.16,480.38)"
       id="g384"><path
         id="path386"
         style="fill:none;stroke:#000000;stroke-width:0.72000003;stroke-linecap:round;stroke-linejoin:bevel;stroke-miterlimit:10;stroke-dasharray:none;stroke-opacity:1"
         d="m 0,0 2.58,-1.32 c 4.396,-2.106 9.243,-3.593 14.04,-4.44 l 2.88,-0.48 2.1,-0.18 h 2.1 l 2.1,0.18 2.1,0.3" /><g
         transform="translate(30.06,-7.92)"
         id="g388"><path
           id="path390"
           style="fill:none;stroke:#000000;stroke-width:0.72000003;stroke-linecap:round;stroke-linejoin:bevel;stroke-miterlimit:10;stroke-dasharray:none;stroke-opacity:1"
           d="M 0,0 -0.06,0.6 -0.24,1.08 -0.6,1.5 -1.08,1.8 -1.62,1.98 -2.16,1.92" /><g
           transform="translate(-6,-11.88)"
           id="g392"><path
             id="path394"
             style="fill:none;stroke:#000000;stroke-width:0.72000003;stroke-linecap:round;stroke-linejoin:bevel;stroke-miterlimit:10;stroke-dasharray:none;stroke-opacity:1"
             d="m 0,0 1.26,1.2 c 2.228,2.498 3.959,5.673 4.5,9 L 6,11.94" /><g
             transform="translate(-12.42,-9)"
             id="g396"><path
               id="path398"
               style="fill:none;stroke:#000000;stroke-width:0.72000003;stroke-linecap:round;stroke-linejoin:bevel;stroke-miterlimit:10;stroke-dasharray:none;stroke-opacity:1"
               d="M 0,0 3.24,2.04 6.42,4.2 9.48,6.54 12.42,9" /><g
               transform="translate(-2.82,-1.56)"
               id="g400"><path
                 id="path402"
                 style="fill:none;stroke:#000000;stroke-width:0.72000003;stroke-linecap:round;stroke-linejoin:bevel;stroke-miterlimit:10;stroke-dasharray:none;stroke-opacity:1"
                 d="M 0,0 2.82,1.56" /></g></g></g></g></g><g
       transform="translate(403.14,372.14)"
       id="g404"><path
         id="path406"
         style="fill:none;stroke:#000000;stroke-width:0.72000003;stroke-linecap:round;stroke-linejoin:round;stroke-miterlimit:10;stroke-dasharray:none;stroke-opacity:1"
         d="M 0,0 17.22,6.6" /></g><g
       transform="translate(420.36,378.8)"
       id="g408"><path
         id="path410"
         style="fill:none;stroke:#000000;stroke-width:0.72000003;stroke-linecap:round;stroke-linejoin:bevel;stroke-miterlimit:10;stroke-dasharray:none;stroke-opacity:1"
         d="m 0,0 0.6,0.3 c 0.981,0.811 1.295,1.794 0.84,3 L 1.08,3.9" /><g
         transform="translate(1.08,3.84)"
         id="g412"><path
           id="path414"
           style="fill:none;stroke:#000000;stroke-width:0.72000003;stroke-linecap:round;stroke-linejoin:bevel;stroke-miterlimit:10;stroke-dasharray:none;stroke-opacity:1"
           d="m 0,0 -1.8,2.22 -1.92,2.16 -2.1,1.98 -2.16,1.92 -2.28,1.74 -2.34,1.62" /><g
           transform="translate(-15.96,14.04)"
           id="g416"><path
             id="path418"
             style="fill:none;stroke:#000000;stroke-width:0.72000003;stroke-linecap:round;stroke-linejoin:bevel;stroke-miterlimit:10;stroke-dasharray:none;stroke-opacity:1"
             d="M 0,0 3.36,-2.34" /></g></g></g><g
       transform="translate(396.54,317.9)"
       id="g420"><path
         id="path422"
         style="fill:none;stroke:#000000;stroke-width:0.72000003;stroke-linecap:round;stroke-linejoin:round;stroke-miterlimit:10;stroke-dasharray:none;stroke-opacity:1"
         d="M 0,0 -10.32,4.86" /></g><g
       transform="translate(386.22,322.7)"
       id="g424"><path
         id="path426"
         style="fill:none;stroke:#000000;stroke-width:0.72000003;stroke-linecap:round;stroke-linejoin:bevel;stroke-miterlimit:10;stroke-dasharray:none;stroke-opacity:1"
         d="M 0,0 -1.98,0.78 C -5.259,1.996 -8.799,2.631 -12.3,2.34 l -2.1,-0.18" /></g><g
       transform="translate(304.44,321.26)"
       id="g428"><path
         id="path430"
         style="fill:none;stroke:#000000;stroke-width:0.72000003;stroke-linecap:round;stroke-linejoin:round;stroke-miterlimit:10;stroke-dasharray:none;stroke-opacity:1"
         d="M 0,0 9.66,-0.24 C 25.872,-0.355 41.74,0.459 57.84,2.4 l 9.54,1.26" /></g><g
       transform="translate(304.44,321.2)"
       id="g432"><path
         id="path434"
         style="fill:none;stroke:#000000;stroke-width:0.72000003;stroke-linecap:round;stroke-linejoin:bevel;stroke-miterlimit:10;stroke-dasharray:none;stroke-opacity:1"
         d="m 0,0 h -2.22 c -4.372,-0.184 -8.662,-1.479 -12.48,-3.6 l -1.86,-1.2" /></g><g
       transform="translate(283.26,329.24)"
       id="g436"><path
         id="path438"
         style="fill:none;stroke:#000000;stroke-width:0.72000003;stroke-linecap:round;stroke-linejoin:round;stroke-miterlimit:10;stroke-dasharray:none;stroke-opacity:1"
         d="M 0,0 -8.94,-4.8" /></g><g
       transform="translate(274.38,324.38)"
       id="g440"><path
         id="path442"
         style="fill:none;stroke:#000000;stroke-width:0.72000003;stroke-linecap:round;stroke-linejoin:bevel;stroke-miterlimit:10;stroke-dasharray:none;stroke-opacity:1"
         d="M 0,0 -1.14,-0.66 C -5.526,-3.724 -7.186,-9.466 -4.98,-14.4 l 0.6,-1.14 0.78,-1.14 c 2.246,-2.889 5.997,-4.625 9.66,-4.26 l 1.38,0.18" /></g><g
       transform="translate(328.32,466.1)"
       id="g444"><path
         id="path446"
         style="fill:none;stroke:#000000;stroke-width:0.72000003;stroke-linecap:round;stroke-linejoin:round;stroke-miterlimit:10;stroke-dasharray:none;stroke-opacity:1"
         d="M 0,0 -10.74,1.56" /></g><g
       transform="translate(317.58,467.6)"
       id="g448"><path
         id="path450"
         style="fill:none;stroke:#000000;stroke-width:0.72000003;stroke-linecap:round;stroke-linejoin:bevel;stroke-miterlimit:10;stroke-dasharray:none;stroke-opacity:1"
         d="m 0,0 -2.64,0.3 c -14.249,1.248 -28.508,-4.178 -38.34,-14.58 l -1.74,-1.98" /><g
         transform="translate(-42.78,-16.26)"
         id="g452"><path
           id="path454"
           style="fill:none;stroke:#000000;stroke-width:0.72000003;stroke-linecap:round;stroke-linejoin:bevel;stroke-miterlimit:10;stroke-dasharray:none;stroke-opacity:1"
           d="m 0,0 -1.5,-1.86 c -7.765,-10.519 -9.116,-24.364 -3.66,-36.24 l 1.08,-2.16" /><g
           transform="translate(-4.02,-40.26)"
           id="g456"><path
             id="path458"
             style="fill:none;stroke:#000000;stroke-width:0.72000003;stroke-linecap:round;stroke-linejoin:bevel;stroke-miterlimit:10;stroke-dasharray:none;stroke-opacity:1"
             d="m 0,0 1.26,-2.16 c 13.433,-21.354 42.171,-26.466 62.16,-11.1 l 1.92,1.56" /><g
             transform="translate(65.4,-11.7)"
             id="g460"><path
               id="path462"
               style="fill:none;stroke:#000000;stroke-width:0.72000003;stroke-linecap:round;stroke-linejoin:bevel;stroke-miterlimit:10;stroke-dasharray:none;stroke-opacity:1"
               d="m 0,0 1.8,1.68 c 18.943,18.696 15.274,49.996 -7.5,63.78 l -2.16,1.2" /></g></g></g></g><g
       transform="translate(394.68,465.92)"
       id="g464"><path
         id="path466"
         style="fill:none;stroke:#000000;stroke-width:0.72000003;stroke-linecap:round;stroke-linejoin:round;stroke-miterlimit:10;stroke-dasharray:none;stroke-opacity:1"
         d="M 0,0 -8.4,-0.24" /></g><g
       transform="translate(386.28,465.68)"
       id="g468"><path
         id="path470"
         style="fill:none;stroke:#000000;stroke-width:0.72000003;stroke-linecap:round;stroke-linejoin:bevel;stroke-miterlimit:10;stroke-dasharray:none;stroke-opacity:1"
         d="m 0,0 -2.22,-0.18 c -5.206,-0.433 -10.441,-2.564 -14.64,-5.64 l -1.8,-1.38" /><g
         transform="translate(-18.6,-7.2)"
         id="g472"><path
           id="path474"
           style="fill:none;stroke:#000000;stroke-width:0.72000003;stroke-linecap:round;stroke-linejoin:bevel;stroke-miterlimit:10;stroke-dasharray:none;stroke-opacity:1"
           d="m 0,0 -1.62,-1.44 c -2.578,-2.732 -4.526,-5.401 -6,-8.88 l -0.78,-2.04" /><g
           transform="translate(-8.4,-12.42)"
           id="g476"><path
             id="path478"
             style="fill:none;stroke:#000000;stroke-width:0.72000003;stroke-linecap:round;stroke-linejoin:bevel;stroke-miterlimit:10;stroke-dasharray:none;stroke-opacity:1"
             d="m 0,0 -0.78,-2.52 c -2.26,-8.576 -1.871,-17.887 1.38,-26.16 l 1.02,-2.46" /><g
             transform="translate(1.56,-31.14)"
             id="g480"><path
               id="path482"
               style="fill:none;stroke:#000000;stroke-width:0.72000003;stroke-linecap:round;stroke-linejoin:bevel;stroke-miterlimit:10;stroke-dasharray:none;stroke-opacity:1"
               d="m 0,0 1.02,-2.1 c 5.479,-9.904 14.938,-16.19 26.16,-17.52 l 2.28,-0.18" /><g
               transform="translate(29.52,-19.68)"
               id="g484"><path
                 id="path486"
                 style="fill:none;stroke:#000000;stroke-width:0.72000003;stroke-linecap:round;stroke-linejoin:bevel;stroke-miterlimit:10;stroke-dasharray:none;stroke-opacity:1"
                 d="m 0,0 3,-0.06 3.06,0.12 3,0.3 3,0.48 3,0.66" /></g></g></g></g></g><g
       transform="translate(270.06,385.94)"
       id="g488"><path
         id="path490"
         style="fill:none;stroke:#000000;stroke-width:0.72000003;stroke-linecap:round;stroke-linejoin:round;stroke-miterlimit:10;stroke-dasharray:none;stroke-opacity:1"
         d="M 0,0 7.02,-5.7" /></g><g
       transform="translate(277.14,380.24)"
       id="g492"><path
         id="path494"
         style="fill:none;stroke:#000000;stroke-width:0.72000003;stroke-linecap:round;stroke-linejoin:bevel;stroke-miterlimit:10;stroke-dasharray:none;stroke-opacity:1"
         d="m 0,0 1.92,-1.44 c 9.56,-6.71 21.332,-8.993 32.7,-6.24 l 2.34,0.66" /></g><g
       transform="translate(345.48,377.12)"
       id="g496"><path
         id="path498"
         style="fill:none;stroke:#000000;stroke-width:0.72000003;stroke-linecap:round;stroke-linejoin:round;stroke-miterlimit:10;stroke-dasharray:none;stroke-opacity:1"
         d="M 0,0 5.28,-13.5" /></g><g
       transform="translate(350.76,363.68)"
       id="g500"><path
         id="path502"
         style="fill:none;stroke:#000000;stroke-width:0.72000003;stroke-linecap:round;stroke-linejoin:bevel;stroke-miterlimit:10;stroke-dasharray:none;stroke-opacity:1"
         d="m 0,0 0.9,-2.1 c 1.491,-3.463 5.444,-8.112 8.58,-10.2 l 1.86,-1.2" /><g
         transform="translate(11.34,-13.56)"
         id="g504"><path
           id="path506"
           style="fill:none;stroke:#000000;stroke-width:0.72000003;stroke-linecap:round;stroke-linejoin:bevel;stroke-miterlimit:10;stroke-dasharray:none;stroke-opacity:1"
           d="m 0,0 0.9,-0.48 c 2.771,-1.181 6.294,-0.159 7.92,2.4 L 9.3,2.76" /><g
           transform="translate(9.3,2.82)"
           id="g508"><path
             id="path510"
             style="fill:none;stroke:#000000;stroke-width:0.72000003;stroke-linecap:round;stroke-linejoin:bevel;stroke-miterlimit:10;stroke-dasharray:none;stroke-opacity:1"
             d="M 0,0 0.72,1.8 1.26,3.66 1.62,5.52 1.8,7.44 1.74,9.36" /><g
             transform="translate(1.8,9.36)"
             id="g512"><path
               id="path514"
               style="fill:none;stroke:#000000;stroke-width:0.72000003;stroke-linecap:round;stroke-linejoin:bevel;stroke-miterlimit:10;stroke-dasharray:none;stroke-opacity:1"
               d="m 0,0 -0.42,4.32 c -0.972,10.03 -3.411,19.897 -6.9,29.34 l -1.62,4.02" /></g></g></g></g><g
       transform="translate(307.5,430.58)"
       id="g516"><path
         id="path518"
         style="fill:none;stroke:#000000;stroke-width:0.72000003;stroke-linecap:round;stroke-linejoin:round;stroke-miterlimit:10;stroke-dasharray:none;stroke-opacity:1"
         d="M 0,0 -1.2,-2.82" /></g><g
       transform="translate(306.24,427.76)"
       id="g520"><path
         id="path522"
         style="fill:none;stroke:#000000;stroke-width:0.72000003;stroke-linecap:round;stroke-linejoin:bevel;stroke-miterlimit:10;stroke-dasharray:none;stroke-opacity:1"
         d="m 0,0 -0.24,-0.9 c -1.555,-7.672 9.91,-9.212 10.5,-1.38 l -0.06,0.9" /><g
         transform="translate(10.26,-1.38)"
         id="g524"><path
           id="path526"
           style="fill:none;stroke:#000000;stroke-width:0.72000003;stroke-linecap:round;stroke-linejoin:bevel;stroke-miterlimit:10;stroke-dasharray:none;stroke-opacity:1"
           d="M 0,0 -0.24,0.96 C -1.181,4.235 -4.99,5.95 -8.1,4.68 L -8.94,4.26" /></g></g><g
       transform="translate(394.62,432.14)"
       id="g528"><path
         id="path530"
         style="fill:none;stroke:#000000;stroke-width:0.72000003;stroke-linecap:round;stroke-linejoin:round;stroke-miterlimit:10;stroke-dasharray:none;stroke-opacity:1"
         d="M 0,0 -1.2,-2.88" /></g><g
       transform="translate(393.42,429.32)"
       id="g532"><path
         id="path534"
         style="fill:none;stroke:#000000;stroke-width:0.72000003;stroke-linecap:round;stroke-linejoin:bevel;stroke-miterlimit:10;stroke-dasharray:none;stroke-opacity:1"
         d="m 0,0 -0.24,-0.9 c -1.555,-7.672 9.91,-9.212 10.5,-1.38 l -0.06,0.9" /><g
         transform="translate(10.2,-1.44)"
         id="g536"><path
           id="path538"
           style="fill:none;stroke:#000000;stroke-width:0.72000003;stroke-linecap:round;stroke-linejoin:bevel;stroke-miterlimit:10;stroke-dasharray:none;stroke-opacity:1"
           d="M 0,0 -0.24,0.96 C -1.181,4.235 -4.99,5.95 -8.1,4.68 L -8.94,4.26" /></g></g></g></svg>