<?xml version="1.0" encoding="UTF-8" standalone="no"?>
<svg
   xmlns:dc="http://purl.org/dc/elements/1.1/"
   xmlns:cc="http://creativecommons.org/ns#"
   xmlns:rdf="http://www.w3.org/1999/02/22-rdf-syntax-ns#"
   xmlns:svg="http://www.w3.org/2000/svg"
   xmlns="http://www.w3.org/2000/svg"
   viewBox="0 0 793.62665 1122.6667"
   height="1122.6667"
   width="793.62665"
   xml:space="preserve"
   id="svg2"
   version="1.1"><metadata
     id="metadata8"><rdf:RDF><cc:Work
         rdf:about=""><dc:format>image/svg+xml</dc:format><dc:type
           rdf:resource="http://purl.org/dc/dcmitype/StillImage" /></cc:Work></rdf:RDF></metadata><defs
     id="defs6" /><g
     transform="matrix(1.3333333,0,0,-1.3333333,0,1122.6667)"
     id="g10"><g
       transform="translate(190.14,417.56)"
       id="g12"><path
         id="path14"
         style="fill:none;stroke:#000000;stroke-width:0.72000003;stroke-linecap:round;stroke-linejoin:round;stroke-miterlimit:10;stroke-dasharray:none;stroke-opacity:1"
         d="M 0,0 4.5,-19.92" /></g><g
       transform="translate(194.7,397.64)"
       id="g16"><path
         id="path18"
         style="fill:none;stroke:#000000;stroke-width:0.72000003;stroke-linecap:round;stroke-linejoin:bevel;stroke-miterlimit:10;stroke-dasharray:none;stroke-opacity:1"
         d="m 0,0 0.96,-3.84 1.08,-3.78 c 14.099,-45.751 57.474,-76.425 105.3,-74.28 l 3.96,0.24 3.96,0.36 c 47.605,5.688 85.412,42.682 92.04,90.18 l 0.48,3.96 0.3,3.9" /></g><g
       transform="translate(389.7,418.76)"
       id="g20"><path
         id="path22"
         style="fill:none;stroke:#000000;stroke-width:0.72000003;stroke-linecap:round;stroke-linejoin:round;stroke-miterlimit:10;stroke-dasharray:none;stroke-opacity:1"
         d="M 0,0 27.6,-9.18" /><g
         transform="translate(-216.9,-4.5)"
         id="g24"><path
           id="path26"
           style="fill:none;stroke:#000000;stroke-width:0.72000003;stroke-linecap:round;stroke-linejoin:round;stroke-miterlimit:10;stroke-dasharray:none;stroke-opacity:1"
           d="M 0,0 34.32,6.6" /></g></g><g
       transform="translate(257.7,529.7)"
       id="g28"><path
         id="path30"
         style="fill:none;stroke:#000000;stroke-width:0.72000003;stroke-linecap:round;stroke-linejoin:bevel;stroke-miterlimit:10;stroke-dasharray:none;stroke-opacity:1"
         d="M 0,0 -1.02,-0.06 -1.98,-0.3 -2.94,-0.66 c -10.998,-5.615 -13.932,-30.012 -14.1,-40.8 v -5.16 c 0.113,-10.502 3.245,-36.824 15.06,-41.16 l 0.96,-0.24 1.02,-0.06 1.02,0.06 0.96,0.24 c 11.253,4.055 14.665,28.616 14.94,38.64 l 0.12,2.52 v 2.58 c 0.212,11.177 -2.653,37.542 -14.1,43.38 L 1.98,-0.3 1.02,-0.06 Z" /><g
         transform="translate(82.86)"
         id="g32"><path
           id="path34"
           style="fill:none;stroke:#000000;stroke-width:0.72000003;stroke-linecap:round;stroke-linejoin:bevel;stroke-miterlimit:10;stroke-dasharray:none;stroke-opacity:1"
           d="M 0,0 -1.02,-0.06 -1.98,-0.3 -2.94,-0.66 c -10.998,-5.615 -13.932,-30.012 -14.1,-40.8 v -5.16 c 0.113,-10.502 3.245,-36.824 15.06,-41.16 l 0.96,-0.24 1.02,-0.06 1.02,0.06 0.96,0.24 c 11.253,4.055 14.665,28.616 14.94,38.64 l 0.12,2.52 v 2.58 c 0.212,11.177 -2.653,37.542 -14.1,43.38 L 1.98,-0.3 1.02,-0.06 Z" /><g
           transform="translate(115.44,-100.5)"
           id="g36"><path
             id="path38"
             style="fill:none;stroke:#000000;stroke-width:0.72000003;stroke-linecap:round;stroke-linejoin:bevel;stroke-miterlimit:10;stroke-dasharray:none;stroke-opacity:1"
             d="m 0,0 -0.06,4.86 -0.24,4.92 -0.36,4.86 c -7.657,81.732 -75.129,144.237 -157.2,145.68 h -4.92 l -4.86,-0.18 C -249.573,156.327 -315.237,91.638 -320.34,9.78 l -0.24,-4.92 -0.06,-4.86 0.06,-4.86 0.24,-4.92 c 5.089,-81.838 70.789,-146.57 152.7,-150.36 l 4.86,-0.18 h 4.92 c 82.064,1.432 149.545,63.954 157.2,145.68 l 0.36,4.86 0.24,4.92 z" /></g></g></g></g></svg>