<?xml version="1.0" encoding="UTF-8" standalone="no"?>
<svg
   xmlns:dc="http://purl.org/dc/elements/1.1/"
   xmlns:cc="http://creativecommons.org/ns#"
   xmlns:rdf="http://www.w3.org/1999/02/22-rdf-syntax-ns#"
   xmlns:svg="http://www.w3.org/2000/svg"
   xmlns="http://www.w3.org/2000/svg"
   viewBox="0 0 793.62665 1122.6667"
   height="1122.6667"
   width="793.62665"
   xml:space="preserve"
   id="svg2"
   version="1.1"><metadata
     id="metadata8"><rdf:RDF><cc:Work
         rdf:about=""><dc:format>image/svg+xml</dc:format><dc:type
           rdf:resource="http://purl.org/dc/dcmitype/StillImage" /></cc:Work></rdf:RDF></metadata><defs
     id="defs6" /><g
     transform="matrix(1.3333333,0,0,-1.3333333,0,1122.6667)"
     id="g10"><g
       transform="translate(428.94,366.38)"
       id="g12"><path
         id="path14"
         style="fill:none;stroke:#000000;stroke-width:0.72000003;stroke-linecap:round;stroke-linejoin:bevel;stroke-miterlimit:10;stroke-dasharray:none;stroke-opacity:1"
         d="m 0,0 1.74,4.44 c 15.93,42.054 10.897,89.369 -13.38,127.2 l -2.64,3.96" /><g
         transform="translate(-131.4,197.04)"
         id="g16"><path
           id="path18"
           style="fill:none;stroke:#000000;stroke-width:0.72000003;stroke-linecap:round;stroke-linejoin:bevel;stroke-miterlimit:10;stroke-dasharray:none;stroke-opacity:1"
           d="m 0,0 -4.62,-0.06 c -48.822,-1.592 -93.573,-28.176 -118.2,-70.38 l -2.28,-4.02" /><g
           transform="translate(-126.84,-206.82)"
           id="g20"><path
             id="path22"
             style="fill:none;stroke:#000000;stroke-width:0.72000003;stroke-linecap:round;stroke-linejoin:bevel;stroke-miterlimit:10;stroke-dasharray:none;stroke-opacity:1"
             d="m 0,0 2.22,-4.2 c 6.028,-11.016 13.606,-21.206 22.32,-30.24 l 3.3,-3.36" /><g
             transform="translate(267,161.28)"
             id="g24"><path
               id="path26"
               style="fill:none;stroke:#000000;stroke-width:0.72000003;stroke-linecap:round;stroke-linejoin:bevel;stroke-miterlimit:10;stroke-dasharray:none;stroke-opacity:1"
               d="m 0,0 -3,4.2 c -31.015,42.186 -79.666,67.682 -132,69.3 l -5.16,0.06" /><g
               transform="translate(-289.86,-15.54)"
               id="g28"><path
                 id="path30"
                 style="fill:none;stroke:#000000;stroke-width:0.72000003;stroke-linecap:round;stroke-linejoin:bevel;stroke-miterlimit:10;stroke-dasharray:none;stroke-opacity:1"
                 d="m 0,0 -2.4,-4.56 c -23.588,-46.705 -24.328,-101.964 -1.98,-149.28 l 2.28,-4.62" /><g
                 transform="translate(31.26,-203.64)"
                 id="g32"><path
                   id="path34"
                   style="fill:none;stroke:#000000;stroke-width:0.72000003;stroke-linecap:round;stroke-linejoin:bevel;stroke-miterlimit:10;stroke-dasharray:none;stroke-opacity:1"
                   d="m 0,0 3.72,-3.48 c 86.029,-77.852 221.747,-49.8 269.94,55.74 l 2.04,4.68" /></g></g></g></g></g></g><g
       transform="translate(297.54,563.48)"
       id="g36"><path
         id="path38"
         style="fill:none;stroke:#000000;stroke-width:0.72000003;stroke-linecap:round;stroke-linejoin:round;stroke-miterlimit:10;stroke-dasharray:none;stroke-opacity:1"
         d="M 0,0 V 28.02" /><g
         transform="translate(140.22,-45.6)"
         id="g40"><path
           id="path42"
           style="fill:none;stroke:#000000;stroke-width:0.72000003;stroke-linecap:round;stroke-linejoin:round;stroke-miterlimit:10;stroke-dasharray:none;stroke-opacity:1"
           d="M 0,0 -23.04,-15.9" /><g
           transform="translate(-8.76,-151.5)"
           id="g44"><path
             id="path46"
             style="fill:none;stroke:#000000;stroke-width:0.72000003;stroke-linecap:round;stroke-linejoin:round;stroke-miterlimit:10;stroke-dasharray:none;stroke-opacity:1"
             d="M 0,0 25.8,-10.74" /><g
             transform="translate(-230.46,-47.58)"
             id="g48"><path
               id="path50"
               style="fill:none;stroke:#000000;stroke-width:0.72000003;stroke-linecap:round;stroke-linejoin:round;stroke-miterlimit:10;stroke-dasharray:none;stroke-opacity:1"
               d="M 0,0 -19.5,-20.1" /><g
               transform="translate(-27.9,37.74)"
               id="g52"><path
                 id="path54"
                 style="fill:none;stroke:#000000;stroke-width:0.72000003;stroke-linecap:round;stroke-linejoin:round;stroke-miterlimit:10;stroke-dasharray:none;stroke-opacity:1"
                 d="M 0,0 -24.96,-12.66" /><g
                 transform="translate(1.74,132.48)"
                 id="g56"><path
                   id="path58"
                   style="fill:none;stroke:#000000;stroke-width:0.72000003;stroke-linecap:round;stroke-linejoin:round;stroke-miterlimit:10;stroke-dasharray:none;stroke-opacity:1"
                   d="M 0,0 -24.6,13.32" /></g></g></g></g></g></g></g></svg>